<?xml version="1.0" encoding="UTF-8"?>
<svg id="Layer_2" data-name="Layer 2" xmlns="http://www.w3.org/2000/svg" viewBox="0 0 414.38 724.41">
  <g id="Layer_1-2" data-name="Layer 1">
    <path d="m414.38,19.99c-1.48.86-3,1.68-4.41,2.64-.24.17-.24,1.06-.03,1.46.65,1.28.38,2.07-.86,2.84-2.53,1.59-5.36,1.19-8.1,1.46-4.14.41-8.35.5-12.4,1.35-4.32.9-8.08,3.36-11.82,5.69-2.7,1.67-5.46,3.24-8.23,4.79-1.88,1.04-3.97,1.76-5.69,3.01-.96.7-1.55,2.12-1.94,3.34-.95,2.98-1.7,6.02-2.5,9.05-.6,2.26-1.12,4.55-1.76,6.8-.66,2.37-1.41,4.71-2.13,7.07-.51,1.67-1.05,3.33-1.53,5.01-1.5,5.27-2.87,10.58-4.51,15.81-1.44,4.59-3.1,9.11-4.78,13.61-1.43,3.81-2.88,7.62-4.61,11.3-1.11,2.37-2.76,4.49-4.12,6.75-2.13,3.54-4.34,7.04-6.31,10.67-2.21,4.06-4.2,8.23-6.26,12.36-1.07,2.15-2.05,4.35-3.09,6.51-1.72,3.57-3.49,7.11-5.18,10.69-1.93,4.07-3.76,8.18-5.7,12.24-1.61,3.36-3.36,6.65-4.97,10.01-2.83,5.91-5.43,11.92-4.35,18.69.43,2.72,1.32,5.37,2.08,8.03.48,1.67,1.18,3.27,1.63,4.94,1.53,5.63,3,11.27,4.47,16.92,1.16,4.49,2.35,8.97,3.37,13.49.3,1.32.27,2.8,0,4.13-.86,4.39-2.1,8.67-4.41,12.57-.18.31-.34.65-.4,1-.52,3.03-.92,6.09-1.54,9.1-.61,3-1.41,5.96-2.15,8.94-.52,2.11-1.17,4.18-1.6,6.31-1.14,5.65-3.24,10.96-5.84,16.06-1.79,3.53-4.15,6.79-5.84,10.36-1.38,2.91-2.39,6.05-3.11,9.2-.82,3.58-1.14,7.27-.17,10.95,1.03,3.92,3.44,6.76,6.54,9.25,4.92,3.95,9.91,7.86,14.49,12.2,8.51,8.05,16.85,16.28,25.06,24.63,6.93,7.05,13.64,14.33,20.35,21.59,3.23,3.49,6.43,7.04,9.31,10.82,3,3.93,5.86,8.06,4.93,13.51-.66,3.85,1.66,6.36,4.12,8.75,1.47,1.42,3.04,2.73,4.55,4.11,1.38,1.26.81,2.86.16,4.01-1.27,2.24-3.16,3.86-5.98,4.12-2.21.21-4.42.58-6.58,1.11-1.6.4-2.6,2.22-2.16,3.84.29,1.06-.1,1.35-.93,1.75-3.46,1.66-6.97,2.72-10.91,2.55-5.68-.25-11.38-.13-17.08-.24-1.14-.02-2.31-.2-3.39-.54-1.94-.62-3.37.21-4.81,1.31-.85.66-1.74,1.35-2.73,1.74-.72.28-1.77.37-2.43.05-2.8-1.35-5.55-2.5-8.78-1.74-.83.19-1.8-.11-2.68-.28-2.73-.53-5.35-.43-8.05.44-2.45.79-5.03,1.38-7.59,1.55-1.37.1-2.99-.59-4.2-1.38-4.13-2.68-8.14-5.55-12.19-8.36-.79-.55-1.48-1.28-2.33-1.68-.38-.18-1.33.07-1.55.42-1.36,2.18-2.61,4.43-3.86,6.68-2.16,3.88-4.41,7.71-6.41,11.67-2.18,4.33-4.84,8.42-5.98,13.27-.81,3.43-2.34,6.69-3.39,10.07-.74,2.4-1.2,4.89-1.8,7.34-.48,1.99-1.01,3.97-1.45,5.96-.7,3.12-1.51,6.23-1.98,9.39-.56,3.77-.73,7.59-1.19,11.37-.52,4.3.03,8.53.75,12.74.27,1.59.79,3.17,1.44,4.65,3.89,8.82,4.73,18.27,5.85,27.68,1.34,11.22.83,22.48.94,33.72.03,2.78-.26,5.56-.31,8.35-.12,7.17,2.23,13.73,5.12,20.14,2.25,5,4.68,9.93,6.66,15.04,1.8,4.64,3.11,9.47,4.62,14.22,2.6,8.16,3.79,16.58,4.28,25.08.45,7.9.75,15.83.56,23.74-.09,3.72-1.31,7.45-2.36,11.08-.67,2.3-2.48,3.65-5.09,3.57-3.51-.11-7.03-.09-10.53-.29-5.05-.29-7.37-3.14-8.77-7.89-1.29-4.37-1.01-8.86-1.38-13.3-.51-6.21-1.37-12.39-1.06-18.65.28-5.56.58-11.12.64-16.68.05-4.56-1.06-8.92-2.9-13.11-2.03-4.62-3.91-9.3-5.96-13.91-1.27-2.86-2.71-5.64-4.1-8.44-.09-.17-.37-.25-1.08-.71.12,1.5.09,2.59.31,3.64.77,3.71,1.71,7.39,2.42,11.11.67,3.5,1.06,7.05,1.68,10.56,1.4,7.83.94,15.74.64,23.57-.36,9.04-1.59,18.06-2.65,27.07-.53,4.54-1.45,9.05-2.33,13.54-.51,2.57-2.47,3.58-5.08,2.93-1.23-.31-2.48-.77-3.72-.75-3.32.05-4.78-2.2-5.99-4.67-2.9-5.94-3.17-12.46-3.83-18.86-.2-1.98-.17-4.01,0-5.99.48-5.4-1.45-9.94-4.86-13.9-4.21-4.88-8.42-9.77-12.88-14.41-4.4-4.57-2.83-8.04-.68-11.96,2.68-4.9,5.91-9.51,8.38-14.51,1.54-3.13,2.49-6.69,3.04-10.16,1.24-7.86.63-15.81-.2-23.66-.68-6.4-2.19-12.72-3.51-19.04-.88-4.24-1.9-8.47-3.17-12.6-3.42-11.1-2.96-22.46-2.21-33.8.23-3.46,1.36-6.88,3.31-10.03,1.52-2.45,2.39-5.38,3.18-8.2,1.34-4.82,2.49-9.69,3.54-14.58.75-3.48,1.45-7.02,1.67-10.56.1-1.7-.92-3.5-1.53-5.22-.68-1.92-1.6-3.77-2.16-5.72-1.13-3.93-2.09-7.91-3.12-11.88-1.61-6.24-3.27-12.46-4.81-18.72-.69-2.8-1.11-5.67-1.74-8.49-.67-3-1.5-5.96-2.15-8.96-.7-3.24-.92-6.64-2.01-9.74-.95-2.7-2.69-5.17-4.35-7.55-.32-.45-1.93-.13-2.91.03-1.81.3-3.59.81-5.4,1.1-4.39.68-8.16-.72-11.9-3.04-3.86-2.39-8.09-4.2-12.17-6.24-1.28-.64-2.63-1.15-3.92-1.79-1.32-.66-2.23-1.46-2.44-3.22-.39-3.3-2.63-5.08-6.3-5.65-1.73-.27-3.46-.52-5.19-.81-1.47-.24-2.27-1.06-2.13-2.63.02-.18,0-.36,0-.55-.02-4.19-.45-4.72-4.56-5.5-2.68-.51-3.7-1.96-3.27-4.62.12-.72.2-1.44.31-2.16.47-3,.12-3.42-2.81-4.04-1.17-.25-2.33-.69-3.38-1.25-.38-.2-.69-1.08-.59-1.56.68-3.1.49-3.46-2.64-4.17-.35-.08-.7-.18-1.05-.28-3.1-.91-3.08-.91-2.83-4.16.04-.5-.14-1.02-.22-1.54-.54.13-1.1.22-1.62.4-3.05,1.09-6.06,2.31-9.14,3.29-2.57.82-5.21,1.49-7.86,2.02-1.17.23-2.46.07-3.67-.12-1.18-.18-2.37-.51-3.47-.97-3.32-1.38-4.6-4.25-5.05-7.53-.23-1.66-.11-3.39,0-5.08.09-1.45-.54-2.13-1.89-1.91-2.19.35-2.37-1.61-3.04-2.74-.35-.58.09-1.92.57-2.67.9-1.4,1.02-5.05-.04-6.59-.97-1.42-1.25-2.65.11-4.18.52-.59,0-2.09-.03-3.17-.2-.07-.39-.14-.59-.21.68-.45,1.3-1.07,2.05-1.31,2.18-.7,4.39-1.31,6.62-1.82,1.63-.37,2.64-1.17,3.14-2.83.42-1.42,1.04-2.83,1.84-4.07.38-.6,1.36-1.09,2.1-1.13,2.84-.16,5.69-.21,8.53-.13,1.48.04,2.23-.33,2.43-1.9.21-1.6.66-3.19,1.14-4.74.14-.44.77-1.02,1.17-1.02,1.1.01,1.6-.41,1.6-1.46,0-1.15.72-1.29,1.67-1.43,3.1-.44,6.25-.76,9.24-1.61,1.02-.29,1.92-1.87,2.36-3.06.49-1.3,1.08-1.87,2.45-1.89,9.02-.11,18.05-.46,27.06-.32,8.22.13,16.42.78,24.64,1.18,3.81.19,7.62.32,11.43.51,7.6.37,15.21.76,22.81,1.13,3.93.19,6.38-2.09,8.32-5.12,2.98-4.65,4.7-9.81,5.33-15.23.33-2.88-.09-5.89-.45-8.81-.73-5.87-1.83-11.69-2.44-17.57-.45-4.35-1.43-8.26-4.82-11.3-4.78-4.29-8.42-9.54-12.31-14.6-2.5-3.25-5.12-6.67-9.1-8.28-1.67-.68-3.65-.87-5.48-.85-4.88.05-9.77.19-14.64.56-6.73.51-13.45,1.18-20.16,1.92-8.89.99-17.82,1.78-26.62,3.29-6.48,1.11-12.76.51-19.1-.36-4.66-.64-9.29-1.54-13.94-2.31-3.87-.64-7.75-1.23-11.61-1.9-4.28-.74-8.54-1.58-12.82-2.33-2.5-.44-5.01-.8-7.52-1.18-3.82-.58-7.64-1.19-11.48-1.68-2.27-.29-2.72.23-3.12,2.45-.67,3.75-2.56,7-4.85,9.92-1.73,2.21-3.95,4.02-5.88,6.08-.72.77-1.39,1.68-1.77,2.66-1.12,2.86-1.94,5.83-3.14,8.65-.92,2.16-2.99,2.13-4.38.11-1.8-2.6-1.68-5.51-1.05-8.38.33-1.5,1.33-2.85,1.74-4.34.24-.88.19-2.08-.24-2.85-.78-1.39-2.31-1.9-3.79-1.38-1.39.49-2.65,1.37-3.9,2.18-.76.49-1.37,1.19-2.08,1.76-2.56,2.06-3.02,4.54-2.29,7.75.99,4.34,1.5,8.81,1.98,13.24.12,1.09-.41,2.92-1.16,3.26-1.14.52-2.9.39-4.1-.14-1.29-.57-2.19-.91-3.47-.06-1.38.92-2.45.11-2.61-1.93-.11-1.44-.05-2.9-.05-4.35,0-.42.03-.85.03-1.27,0-2.38-.09-2.4-2.31-1.44-1.65.71-3.36.76-5.08.14,0-1.21,0-2.42,0-3.63.6-.71,1.25-1.37,1.78-2.12,3.99-5.66,7.84-11.42,11.97-16.97,3.49-4.68,6.73-9.69,11.62-13.1,4.37-3.05,9.03-5.69,13.49-8.62,4.43-2.91,9.14-4.05,14.5-3.92,8.27.21,16.55-.16,24.83-.44,5.92-.2,11.82-.73,17.74-1,11.88-.53,23.69.71,35.51,1.59,7.68.57,15.2-.64,22.72-1.78,2.08-.31,4.14-.82,6.17-1.38,4-1.12,7.99-2.24,11.93-3.54,3.17-1.04,6.39-2.09,9.35-3.6,4.02-2.04,8.2-3.61,12.59-4.27,5.43-.81,10.93-1.36,16.41-1.47,4.23-.09,7.25-3.71,7.86-6.98.71-3.78,1.1-7.64.3-11.51-.24-1.15-.68-1.64-1.86-1.75-5.76-.54-10.91-2.73-15.7-5.91-.56-.37-1.49-.62-2.08-.42-1.29.43-2.47,1.21-3.71,1.81-3.98,1.93-8.12,2.07-12.04.2-3.51-1.67-6.04-4.63-7.66-8.17-1.64-3.59-2.96-7.33-4.49-10.97-1.46-3.48-1.42-6.8.16-10.29,2.51-5.54,7.27-8.66,12.1-11.68,1.02-.64,1.5-1.14,1.62-2.27.16-1.49.31-3.02.75-4.45,2.05-6.75,7.07-11.12,12.62-14.83,3.42-2.29,7.32-3.85,10.99-5.76,3.09-1.61,6.29-2.83,9.85-2.28,1.47.23,2.9.75,4.34,1.16,4.5,1.3,8.43,3.72,12.24,6.35,1.47,1.01,2.75,2.55,4.36,3.02,3.75,1.09,7.65,1.07,11.51.29,1.73-.35,2.93.31,3.19,2.06.25,1.69.29,3.45.13,5.15-.18,1.88.07,2.53,1.89,3.03,1.93.53,2.03.76,1.12,2.65-.68,1.41-.43,1.69,1.14,1.94.86.14,1.87.51,2.45,1.12,2.37,2.48,4.53,5.16,6.93,7.62,1.43,1.46,1.17,2.74.19,4.18-3.11,4.57-6.32,9.09-9.3,13.75-2.02,3.16-3.51,6.57-3.37,10.49.13,3.43-.13,6.87,1.1,10.23.84,2.29,1.11,4.79,1.73,7.17.38,1.45.76,2.96,1.46,4.26.47.86,1.58,2.02,2.3,1.95,1.99-.18,4.12-.16,5.48-2.41,1.92-3.18,4.17-6.17,6.45-9.11,3.24-4.18,6.8-8.11,9.92-12.38,2.94-4.03,5.52-8.32,8.19-12.55,3.96-6.25,7.93-12.5,11.74-18.84,2.64-4.38,5.16-8.85,7.47-13.41,1.38-2.72,2.4-5.64,3.29-8.56.72-2.35.82-4.89,1.56-7.23.96-3.03,2.16-6,3.46-8.9,2.03-4.5,4.14-8.96,6.39-13.35,3.16-6.16,6.54-12.2,9.7-18.35,2.94-5.71,5.67-11.53,8.57-17.26,2.16-4.29,4.38-8.54,6.68-12.76.79-1.45,1.67-2.97,2.89-4.04,4.71-4.13,9.85-7.8,14.31-12.18,5.06-4.98,11.03-8.08,17.62-10.09,4.48-1.36,9.16-2.08,13.73-3.16.67-.16,1.24-.74,1.85-1.13,2.54,0,5.09,0,7.63,0,.22.47.36,1,.66,1.41,1.39,1.91,1.05,3.06-1.16,3.89-2.52.95-5.03,1.9-7.51,2.93-.42.17-.9.73-.92,1.13-.02.37.47,1,.87,1.13,4.25,1.39,8.53,2.71,12.79,4.05v5.45Z"/>
  </g>
</svg>